<svg width="40" height="40" viewBox="0 0 40 40" fill="none" xmlns="http://www.w3.org/2000/svg">
<rect width="40" height="40" fill="#282828"/>
<path d="M20.829 18.7656L20.457 19.2119C20.2902 19.4117 20.1691 19.6456 20.1023 19.8971C20.0355 20.1487 20.0245 20.4118 20.07 20.668C20.1156 20.9242 20.2167 21.1674 20.3662 21.3804C20.5157 21.5935 20.71 21.7712 20.9354 21.9013L21.139 22.0184C21.38 21.5964 21.691 21.2184 22.0588 20.9008L21.6496 20.6651C21.6044 20.6391 21.5655 20.6035 21.5356 20.5609C21.5056 20.5182 21.4854 20.4695 21.4763 20.4182C21.4671 20.3669 21.4694 20.3142 21.4828 20.2639C21.4962 20.2135 21.5205 20.1667 21.5539 20.1267L21.9253 19.6811C22.692 18.8165 23.1531 17.7237 23.2371 16.5711C23.2722 15.9711 23.2021 15.3696 23.03 14.7937C22.8531 14.252 22.5632 13.754 22.1797 13.3325C21.7961 12.911 21.3275 12.5757 20.8048 12.3486C20.0169 12.0022 19.1404 11.9111 18.2982 12.0881C17.4559 12.2651 16.6902 12.7013 16.1085 13.3355C15.726 13.7579 15.4365 14.2559 15.2587 14.7973C15.0865 15.3734 15.0164 15.9752 15.0516 16.5754C15.1359 17.728 15.5972 18.8209 16.3642 19.6854L16.7341 20.1296C16.7674 20.1695 16.7916 20.2163 16.8049 20.2666C16.8182 20.3169 16.8204 20.3695 16.8113 20.4207C16.8022 20.4719 16.782 20.5205 16.7521 20.5631C16.7223 20.6057 16.6835 20.6413 16.6384 20.6673L13.7854 22.3147C13.2426 22.6281 12.7918 23.0788 12.4784 23.6216C12.165 24.1644 12 24.7801 12 25.4068V27H21.6696C21.2955 26.5842 21.0068 26.0989 20.8197 25.5718H13.4283V25.4075C13.4281 25.0312 13.5269 24.6615 13.715 24.3356C13.903 24.0097 14.1736 23.739 14.4995 23.5509L17.3526 21.9027C17.5779 21.7726 17.7721 21.5948 17.9215 21.3817C18.0709 21.1687 18.172 20.9255 18.2176 20.6693C18.2631 20.4131 18.2522 20.1501 18.1854 19.8986C18.1186 19.6471 17.9977 19.4132 17.831 19.2134L17.459 18.767C17.027 18.3043 16.722 17.7378 16.5733 17.1225C16.4247 16.5072 16.4375 15.8639 16.6106 15.255C16.725 14.9026 16.9121 14.5781 17.1597 14.3024C17.4119 14.0274 17.7185 13.8079 18.06 13.6577C18.4015 13.5075 18.7705 13.4299 19.1436 13.4299C19.5167 13.4299 19.8858 13.5075 20.2273 13.6577C20.5688 13.8079 20.8754 14.0274 21.1275 14.3024C21.3746 14.5781 21.5618 14.9023 21.676 15.255C21.7881 15.6564 21.8331 16.0734 21.8096 16.489C21.7433 17.3354 21.3985 18.1359 20.829 18.7656ZM26.2859 17.928C26.0964 17.928 25.9148 18.0032 25.7809 18.1371C25.6469 18.271 25.5717 18.4527 25.5717 18.6421V21.9741H24.8576C24.4338 21.9741 24.0196 22.0997 23.6673 22.3351C23.3149 22.5705 23.0403 22.9051 22.8782 23.2966C22.716 23.6881 22.6736 24.1188 22.7563 24.5344C22.8389 24.9499 23.043 25.3317 23.3426 25.6313C23.6422 25.9309 24.024 26.1349 24.4396 26.2176C24.8552 26.3003 25.2859 26.2578 25.6774 26.0957C26.0689 25.9335 26.4035 25.6589 26.6389 25.3066C26.8743 24.9543 27 24.5401 27 24.1164V18.6421C27.0001 18.5481 26.9816 18.455 26.9456 18.3682C26.9096 18.2814 26.8568 18.2025 26.7903 18.1361C26.7237 18.0698 26.6447 18.0172 26.5578 17.9815C26.4708 17.9458 26.3777 17.9276 26.2837 17.928H26.2859ZM25.5717 24.1164C25.5717 24.2577 25.5298 24.3957 25.4513 24.5132C25.3729 24.6306 25.2613 24.7221 25.1308 24.7762C25.0004 24.8302 24.8568 24.8444 24.7182 24.8168C24.5797 24.7893 24.4524 24.7212 24.3526 24.6214C24.2527 24.5215 24.1847 24.3943 24.1571 24.2557C24.1296 24.1172 24.1437 23.9736 24.1978 23.8431C24.2518 23.7127 24.3433 23.6011 24.4608 23.5227C24.5782 23.4442 24.7163 23.4023 24.8576 23.4023H25.5717V24.1164Z" fill="#7F7F7F"/>
</svg>
