<svg width="40" height="40" viewBox="0 0 40 40" fill="none" xmlns="http://www.w3.org/2000/svg">
<rect width="40" height="40" fill="#282828"/>
<path d="M23.7347 12V23.6327C23.7347 24.2987 23.5372 24.9497 23.1672 25.5034C22.7972 26.0572 22.2713 26.4888 21.656 26.7437C21.0407 26.9985 20.3636 27.0652 19.7104 26.9353C19.0572 26.8054 18.4572 26.4847 17.9863 26.0137C17.5153 25.5428 17.1946 24.9428 17.0647 24.2896C16.9348 23.6364 17.0015 22.9593 17.2563 22.344C17.5112 21.7287 17.9428 21.2028 18.4966 20.8328C19.0503 20.4628 19.7013 20.2653 20.3673 20.2653H21.898V12H23.7347ZM21.898 22.102H20.3673C20.0646 22.102 19.7687 22.1918 19.517 22.36C19.2653 22.5282 19.0691 22.7672 18.9532 23.0469C18.8374 23.3266 18.8071 23.6344 18.8661 23.9313C18.9252 24.2282 19.071 24.5009 19.285 24.715C19.4991 24.929 19.7718 25.0748 20.0687 25.1339C20.3656 25.1929 20.6734 25.1626 20.9531 25.0468C21.2328 24.9309 21.4718 24.7347 21.64 24.483C21.8082 24.2313 21.898 23.9354 21.898 23.6327V22.102Z" fill="#7F7F7F"/>
</svg>
